<?xml version="1.0" encoding="UTF-8" standalone="no"?>
<!-- Generator: Adobe Illustrator 18.1.1, SVG Export Plug-In . SVG Version: 6.00 Build 0)  -->

<svg
   xmlns:dc="http://purl.org/dc/elements/1.1/"
   xmlns:cc="http://creativecommons.org/ns#"
   xmlns:rdf="http://www.w3.org/1999/02/22-rdf-syntax-ns#"
   xmlns:svg="http://www.w3.org/2000/svg"
   xmlns="http://www.w3.org/2000/svg"
   xmlns:sodipodi="http://sodipodi.sourceforge.net/DTD/sodipodi-0.dtd"
   xmlns:inkscape="http://www.inkscape.org/namespaces/inkscape"
   version="1.1"
   id="Layer_1"
   x="0px"
   y="0px"
   viewBox="0 0 512 512"
   enable-background="new 0 0 512 512"
   xml:space="preserve"
   sodipodi:docname="ios-sleep-circle-outline.svg"
   inkscape:version="0.92.2 (5c3e80d, 2017-08-06)"><metadata
     id="metadata9"><rdf:RDF><cc:Work
         rdf:about=""><dc:format>image/svg+xml</dc:format><dc:type
           rdf:resource="http://purl.org/dc/dcmitype/StillImage" /></cc:Work></rdf:RDF></metadata><defs
     id="defs7" /><sodipodi:namedview
     pagecolor="#ffffff"
     bordercolor="#666666"
     borderopacity="1"
     objecttolerance="10"
     gridtolerance="10"
     guidetolerance="10"
     inkscape:pageopacity="0"
     inkscape:pageshadow="2"
     inkscape:window-width="1920"
     inkscape:window-height="1016"
     id="namedview5"
     showgrid="false"
     inkscape:zoom="0.92187499"
     inkscape:cx="-87.824504"
     inkscape:cy="200.43957"
     inkscape:window-x="0"
     inkscape:window-y="27"
     inkscape:window-maximized="1"
     inkscape:current-layer="Layer_1" /><g
     aria-label="Z"
     style="font-style:normal;font-weight:normal;font-size:40px;line-height:1.25;font-family:sans-serif;letter-spacing:0px;word-spacing:0px;fill:#000000;fill-opacity:1;stroke:none"
     id="text821"
     transform="matrix(0.87989809,0,0,0.87989809,115.54931,135.4395)"><path
       d="M 134.00902,188.38951 H 22.778545 V 173.66946 L 108.66396,43.513206 H 25.434795 V 26.579612 H 131.57412 V 41.299664 L 45.688702,171.34524 h 88.320318 z"
       style="font-style:normal;font-variant:normal;font-weight:normal;font-stretch:normal;font-size:226.66667175px;font-family:'Open Sans';-inkscape-font-specification:'Open Sans';letter-spacing:0px"
       id="path820"
       inkscape:connector-curvature="0" /></g><g
     aria-label="Z"
     style="font-style:normal;font-weight:normal;font-size:40px;line-height:1.25;font-family:sans-serif;letter-spacing:0px;word-spacing:0px;fill:#000000;fill-opacity:1;stroke:none"
     id="text821-3"
     transform="matrix(0.61591309,0,0,0.57103013,118.612,145.32425)"><path
       d="M 309.62729,350.59448 H 211.48276 V 337.6062 l 75.78125,-114.84375 h -73.4375 v -14.94141 h 93.65234 v 12.98829 L 231.6976,335.55542 h 77.92969 z"
       style="font-style:normal;font-variant:normal;font-weight:normal;font-stretch:normal;font-size:200px;font-family:'Open sans';-inkscape-font-specification:'Open sans';letter-spacing:0px"
       id="path823"
       inkscape:connector-curvature="0" /></g><g
     aria-label="Z"
     style="font-style:normal;font-weight:normal;font-size:40px;line-height:1.25;font-family:sans-serif;letter-spacing:0px;word-spacing:0px;fill:#000000;fill-opacity:1;stroke:none"
     id="text821-7"
     transform="matrix(0.336848,0,0,0.41458238,199.26587,171.56112)"><path
       d="m 468.96439,491.3226 h -78.51563 v -10.39062 l 60.625,-91.875 h -58.75 v -11.95313 h 74.92188 v 10.39063 l -60.625,91.79687 h 62.34375 z"
       style="font-style:normal;font-variant:normal;font-weight:normal;font-stretch:normal;font-size:160px;font-family:'Open sans';-inkscape-font-specification:'Open sans';letter-spacing:0px"
       id="path826"
       inkscape:connector-curvature="0" /></g><g
     transform="translate(-10.128533,2.951106)"
     id="g874"><g
       id="g868"><g
         id="g866"><path
           inkscape:connector-curvature="0"
           d="M 256,48 C 141.1,48 48,141.1 48,256 48,370.9 141.1,464 256,464 370.9,464 464,370.9 464,256 464,141.1 370.9,48 256,48 Z m 0,398.7 C 150.9,446.7 65.3,361.2 65.3,256 65.3,150.8 150.9,65.3 256,65.3 c 105.1,0 190.7,85.6 190.7,190.7 0,105.1 -85.6,190.7 -190.7,190.7 z"
           id="path864" /></g></g><g
       id="g872" /></g></svg>