<?xml version="1.0" encoding="UTF-8" standalone="no"?>
<!-- Generator: Adobe Illustrator 18.1.1, SVG Export Plug-In . SVG Version: 6.00 Build 0)  -->

<svg
   xmlns:dc="http://purl.org/dc/elements/1.1/"
   xmlns:cc="http://creativecommons.org/ns#"
   xmlns:rdf="http://www.w3.org/1999/02/22-rdf-syntax-ns#"
   xmlns:svg="http://www.w3.org/2000/svg"
   xmlns="http://www.w3.org/2000/svg"
   xmlns:sodipodi="http://sodipodi.sourceforge.net/DTD/sodipodi-0.dtd"
   xmlns:inkscape="http://www.inkscape.org/namespaces/inkscape"
   version="1.1"
   id="Layer_1"
   x="0px"
   y="0px"
   viewBox="0 0 512 512"
   enable-background="new 0 0 512 512"
   xml:space="preserve"
   sodipodi:docname="ios-bluetooth-connected.svg"
   inkscape:version="0.92.2 (5c3e80d, 2017-08-06)"><metadata
     id="metadata943"><rdf:RDF><cc:Work
         rdf:about=""><dc:format>image/svg+xml</dc:format><dc:type
           rdf:resource="http://purl.org/dc/dcmitype/StillImage" /><dc:title /></cc:Work></rdf:RDF></metadata><defs
     id="defs941" /><sodipodi:namedview
     pagecolor="#ffffff"
     bordercolor="#666666"
     borderopacity="1"
     objecttolerance="10"
     gridtolerance="10"
     guidetolerance="10"
     inkscape:pageopacity="0"
     inkscape:pageshadow="2"
     inkscape:window-width="1920"
     inkscape:window-height="1016"
     id="namedview939"
     showgrid="false"
     inkscape:zoom="1.1366189"
     inkscape:cx="-46.403235"
     inkscape:cy="245.65237"
     inkscape:window-x="0"
     inkscape:window-y="27"
     inkscape:window-maximized="1"
     inkscape:current-layer="Layer_1" /><path
     d="M286,256l98-87L255.8,32l0,0H240v180l-89.4-77L128,160l112,96l-112,96l22.6,25.8L240,299v181h15.8l0.2-0.4L384,344L286,256z   M337.8,344.5L272,415V287.2L337.8,344.5z M272,225.6V97.1l65.8,71.2L272,225.6z"
     id="path936" /><g
     transform="matrix(0,0.33231677,-0.33231677,0,541.21969,170.92691)"
     id="g9044"><polygon
       points="378.2,262.9 389.5,274.1 480,183.5 389.5,93 378.2,104.6 449,176 192,176 192,192 449,192 "
       id="polygon9040" /><polygon
       points="133.8,406.9 122.5,418 32,327.5 122.5,236.9 133.8,248.5 63,320 320,320 320,336 63,336 "
       id="polygon9042" /></g></svg>