<?xml version="1.0" encoding="utf-8"?>
<!-- Generator: Adobe Illustrator 18.0.0, SVG Export Plug-In . SVG Version: 6.00 Build 0)  -->
<!DOCTYPE svg PUBLIC "-//W3C//DTD SVG 1.1//EN" "http://www.w3.org/Graphics/SVG/1.1/DTD/svg11.dtd">
<svg version="1.1" id="Layer_1" xmlns="http://www.w3.org/2000/svg" xmlns:xlink="http://www.w3.org/1999/xlink" x="0px" y="0px"
	 viewBox="0 0 512 512" enable-background="new 0 0 512 512" xml:space="preserve">
<g>
	<path d="M112.6,263.9c0.9-1.3,2.2-2.3,3.8-2.6c3.4-0.8,6.6,1.3,7.4,4.7c4.9,21.9,17,39.9,37.1,55.2c11.8,8.9,15,15.3,18.2,21.7
		c3.7,7.4,7.6,15,30.4,30.1c46.2,30.7,104,14,135.2-32.9l23.9-36.1c10.6-15.9,19-32.9,19.5-51.9c0.4-18.6-1.5-35.4-10.7-51.6
		c-1.6-2.9-0.7-6.7,2.4-8.5c2.9-1.6,6.7-0.7,8.5,2.4c10.2,18.2,12.7,37.1,12.3,58c-0.5,21.5-9.8,40.6-21.7,58.4l-23.9,36.1
		c-34.9,52.7-100.4,70.8-152.4,36.3c-25.5-16.9-30.2-26.4-34.5-34.8c-2.9-5.8-5.1-10.2-14.7-17.4c-22.5-17.1-36.1-37.4-41.7-62.2
		C111.4,266.9,111.8,265.2,112.6,263.9z"/>
	<path d="M194.9,342.7c0.2-0.2,0.4-0.5,0.7-0.8c2.3-2.5,6.2-2.6,8.8-0.3c20.5,18.9,43.6,26.8,67.4,22.5c3.4-0.7,6.6,1.6,7.2,5
		c0.7,3.4-1.6,6.6-5,7.2c-27.6,5-54.6-3.9-77.9-25.6C193.6,348.5,193.3,345.1,194.9,342.7z"/>
	<path d="M107.4,182.3l23.9-36.1c11.9-17.8,25.9-33.7,45.5-42.5c19-8.6,37.4-13.6,58.2-11.2c3.4,0.3,5.9,3.5,5.4,6.9
		c-0.3,3.4-3.5,5.9-6.9,5.4c-18.5-2.2-34.7,2.5-51.7,10.2c-17.4,7.7-29.7,22.1-40.3,38L117.7,189c-14.9,22.4-24.3,49.1-16.4,79.1
		c7.8,30.7,27.3,58.2,53.5,75.6c2.8,1.8,3.6,5.8,1.7,8.6c-1.8,2.8-5.8,3.6-8.6,1.7c-28.7-19-50.1-49.2-58.6-82.8
		C80.6,237.9,90.5,207.6,107.4,182.3z"/>
	<g>
		<circle cx="342.9" cy="163.9" r="14.7"/>
		<path d="M378,210.5c-1.5-0.4-2.9-1-4.4-2c-6.7-4.5-8.6-13.6-4.1-20.3c4.5-6.7,13.6-8.6,20.3-4.1c3.7,2.4,5.9,6.1,6.4,10.1
			c6.4-13.8,2-30.6-11.1-39.3l-112.8-75c-12.6-8.4-29.3-6.4-39.7,4c3.5-0.4,7.1,0.3,10.1,2.4c6.7,4.5,8.6,13.6,4.1,20.3
			c-4.5,6.7-13.6,8.6-20.3,4.1c-1-0.7-1.7-1.4-2.6-2.2c1,8.9,5.9,17.4,14.1,22.8l112.8,75C359.3,212.1,369.4,213.3,378,210.5z
			 M325.5,152.4c6.4-9.6,19.4-12.2,28.9-5.9c9.6,6.4,12.2,19.4,5.9,28.9c-6.4,9.6-19.4,12.2-28.9,5.9
			C321.9,175.1,319,161.9,325.5,152.4z"/>
	</g>
</g>
<g>
	<path d="M498.2,238.7l-31.7,31.7c9.7-62.8-9.8-129.8-58.3-178.3c-81-81-212.3-81.1-293.2,0c-16.3,16.3-29.2,34.4-38.9,53.8
		l15.5,7.8c8.9-17.9,20.7-34.6,35.6-49.4c74.1-74.1,194.7-74.1,268.8,0.1c45.5,45.5,63,108.2,52.8,167.5l-34.2-33.1l-10.7,10.8
		l53.1,53.1l52.6-52.6L498.2,238.7z"/>
</g>
</svg>
