<?xml version="1.0" encoding="UTF-8" standalone="no"?>
<!-- Generator: Adobe Illustrator 18.0.0, SVG Export Plug-In . SVG Version: 6.00 Build 0)  -->

<svg
   xmlns:dc="http://purl.org/dc/elements/1.1/"
   xmlns:cc="http://creativecommons.org/ns#"
   xmlns:rdf="http://www.w3.org/1999/02/22-rdf-syntax-ns#"
   xmlns:svg="http://www.w3.org/2000/svg"
   xmlns="http://www.w3.org/2000/svg"
   xmlns:sodipodi="http://sodipodi.sourceforge.net/DTD/sodipodi-0.dtd"
   xmlns:inkscape="http://www.inkscape.org/namespaces/inkscape"
   version="1.1"
   id="Layer_1"
   x="0px"
   y="0px"
   viewBox="0 0 512 512"
   enable-background="new 0 0 512 512"
   xml:space="preserve"
   sodipodi:docname="ios-tilttowake-outline.svg"
   inkscape:version="0.92.5 (2060ec1f9f, 2020-04-08)"><metadata
   id="metadata4659"><rdf:RDF><cc:Work
       rdf:about=""><dc:format>image/svg+xml</dc:format><dc:type
         rdf:resource="http://purl.org/dc/dcmitype/StillImage" /><dc:title></dc:title></cc:Work></rdf:RDF></metadata><defs
   id="defs4657" /><sodipodi:namedview
   pagecolor="#ffffff"
   bordercolor="#666666"
   borderopacity="1"
   objecttolerance="10"
   gridtolerance="10"
   guidetolerance="10"
   inkscape:pageopacity="0"
   inkscape:pageshadow="2"
   inkscape:window-width="1920"
   inkscape:window-height="1020"
   id="namedview4655"
   showgrid="false"
   inkscape:zoom="1.84375"
   inkscape:cx="177.00139"
   inkscape:cy="256.97633"
   inkscape:window-x="0"
   inkscape:window-y="32"
   inkscape:window-maximized="1"
   inkscape:current-layer="Layer_1" />
<g
   id="g4646"
   transform="matrix(1.5583489,0.08166961,-0.08166961,1.5583489,-237.19534,32.590341)">
	<path
   d="m 379.15724,271.71022 c 8.71258,-16.11379 8.45055,-15.8322 8.95055,-34.8322 C 388.50779,218.27802 386.6,216.7 377.4,200.5 c -1.6,-2.9 -0.7,-6.7 2.4,-8.5 2.9,-1.6 6.7,-0.7 8.5,2.4 10.2,18.2 11.86121,21.92239 11.46121,42.82239 -0.5,21.5 -0.57214,21.47243 -10.30397,41.28783 -6.40483,10.68425 -17.48207,4.2486 -10.3,-6.8 z"
   id="path4634"
   inkscape:connector-curvature="0"
   sodipodi:nodetypes="cccccccc" />
	
	<path
   d="m 161.98686,122.28582 c 14.77199,-16.6997 12.49343,-14.52501 31.52965,-25.983645 C 212.51651,87.702175 214.2,90.1 235,92.5 c 3.4,0.3 5.9,3.5 5.4,6.9 -0.3,3.4 -3.5,5.9 -6.9,5.4 -18.5,-2.2 -17.98349,-4.897825 -34.98349,2.80217 -15.45484,9.72031 -13.13682,7.32398 -26.32965,21.48365 -9.37075,10.36946 -17.62926,4.22676 -10.2,-6.8 z"
   id="path4638"
   inkscape:connector-curvature="0"
   sodipodi:nodetypes="cccccccc" />
	<g
   id="g4644">
		<circle
   cx="342.89999"
   cy="163.89999"
   r="14.7"
   id="circle4640" />
		<path
   d="m 378,210.5 c -1.5,-0.4 -2.9,-1 -4.4,-2 -6.7,-4.5 -8.6,-13.6 -4.1,-20.3 4.5,-6.7 13.6,-8.6 20.3,-4.1 3.7,2.4 5.9,6.1 6.4,10.1 6.4,-13.8 2,-30.6 -11.1,-39.3 l -112.8,-75 c -12.6,-8.4 -29.3,-6.4 -39.7,4 3.5,-0.4 7.1,0.3 10.1,2.4 6.7,4.5 8.6,13.6 4.1,20.3 -4.5,6.7 -13.6,8.6 -20.3,4.1 -1,-0.7 -1.7,-1.4 -2.6,-2.2 1,8.9 5.9,17.4 14.1,22.8 l 112.8,75 c 8.5,5.8 18.6,7 27.2,4.2 z m -52.5,-58.1 c 6.4,-9.6 19.4,-12.2 28.9,-5.9 9.6,6.4 12.2,19.4 5.9,28.9 -6.4,9.6 -19.4,12.2 -28.9,5.9 -9.5,-6.2 -12.4,-19.4 -5.9,-28.9 z"
   id="path4642"
   inkscape:connector-curvature="0" />
	</g>
</g>
<g
   id="g4650">
	<path
   d="m 489.75322,259.86163 -34.83989,28.2128 C 471.12458,226.63238 458.73482,157.96111 415.57013,104.65716 343.48066,15.634084 212.91039,1.8100447 123.97631,74.009418 106.06179,88.516311 91.340492,105.16874 79.665777,123.44854 L 94.265544,132.826 C 104.98785,115.95437 118.46884,100.57929 134.83423,87.417833 216.27386,21.469318 336.2132,34.075452 402.15126,115.61453 c 40.4947,50.00679 51.3449,114.19256 35.00224,172.10153 l -30.55276,-36.49355 -11.77028,9.62238 47.25865,58.35957 57.81004,-46.81365 z"
   id="path4648"
   inkscape:connector-curvature="0" />
</g>

</svg>