<?xml version="1.0" encoding="UTF-8" standalone="no"?>
<!DOCTYPE svg PUBLIC "-//W3C//DTD SVG 1.1//EN" "http://www.w3.org/Graphics/SVG/1.1/DTD/svg11.dtd">
<svg width="100%" height="100%" viewBox="0 0 512 512" version="1.1" xmlns="http://www.w3.org/2000/svg" xmlns:xlink="http://www.w3.org/1999/xlink" xml:space="preserve" style="fill-rule:evenodd;clip-rule:evenodd;stroke-linejoin:round;stroke-miterlimit:1.41421;">
    <rect id="canvas0" x="0" y="0" width="512" height="512" style="fill:none;"/>
        <g transform="matrix(1.61745,0,0,1.60555,-161.191,-225.684)">
            <path d="M384.129,286.289C384.129,223.992 327.582,173.414 257.932,173.414C188.281,173.414 131.734,223.992 131.734,286.289C131.734,317.568 146.245,347.443 171.804,368.79L163.551,418.94L210.848,391.014C225.816,396.398 241.799,399.165 257.932,399.165C327.582,399.165 384.129,348.587 384.129,286.289Z"/>
        </g>
        <g transform="matrix(1.89778,0,0,1.91732,-233.497,-311.866)">
            <path d="M166.314,393.284L168.092,394.156L169.582,395.453L170.681,397.087L171.316,398.947L171.442,400.907L171.086,406.159L182.975,400.102L184.843,399.439L186.82,399.277L188.772,399.627L190.566,400.465L192.079,401.734L193.21,403.347L193.88,405.196L194.043,407.152L193.69,409.085L192.843,410.86L191.561,412.359L189.931,413.477L176.417,420.362L162.137,427.637L154.723,422.816L156.278,399.899L156.668,397.974L157.549,396.214L158.859,394.74L160.51,393.652L162.39,393.023L164.369,392.898L166.314,393.284ZM223.745,381.717L224.006,381.785L224.268,381.852L224.53,381.919L224.793,381.986L225.055,382.051L225.318,382.117L225.581,382.181L225.844,382.246L226.107,382.309L226.37,382.373L226.633,382.435L226.897,382.497L227.161,382.559L227.425,382.62L227.689,382.681L227.953,382.741L228.217,382.8L228.481,382.859L228.746,382.918L229.011,382.976L229.276,383.033L229.541,383.09L229.806,383.146L230.071,383.202L230.337,383.257L230.602,383.312L230.868,383.366L231.134,383.42L231.4,383.473L231.666,383.525L231.932,383.578L232.198,383.629L232.465,383.68L232.732,383.731L232.998,383.78L233.265,383.83L233.532,383.879L233.799,383.927L234.067,383.975L234.334,384.022L234.601,384.069L234.869,384.115L235.137,384.161L235.405,384.206L235.673,384.251L235.941,384.295L236.209,384.338L236.477,384.381L236.746,384.424L237.014,384.466L237.283,384.507L237.551,384.548L237.82,384.588L238.089,384.628L238.358,384.667L238.628,384.706L238.897,384.744L239.166,384.782L239.436,384.819L239.705,384.855L239.975,384.891L240.245,384.927L240.514,384.962L240.784,384.996L241.054,385.03L241.325,385.064L241.595,385.096L241.865,385.129L242.135,385.16L242.406,385.192L242.676,385.222L242.947,385.252L243.218,385.282L243.489,385.311L243.76,385.339L244.03,385.367L244.301,385.395L244.573,385.422L244.844,385.448L245.115,385.474L245.387,385.499L245.658,385.524L245.929,385.548L246.201,385.572L246.473,385.595L246.744,385.617L247.016,385.639L247.288,385.661L247.56,385.682L247.832,385.702L248.104,385.722L248.376,385.741L248.648,385.76L248.921,385.778L249.193,385.796L249.465,385.813L249.738,385.83L250.01,385.846L250.283,385.861L250.555,385.876L250.828,385.891L251.101,385.905L251.373,385.918L251.646,385.931L251.919,385.943L252.192,385.955L252.465,385.966L252.738,385.977L253.011,385.987L253.284,385.996L253.557,386.005L253.83,386.014L254.103,386.022L254.377,386.029L254.65,386.036L254.923,386.042L255.197,386.048L255.47,386.053L255.743,386.058L256.017,386.062L256.29,386.065L256.564,386.068L256.837,386.071L257.111,386.073L257.384,386.074L257.658,386.075L257.67,386.075L259.637,386.333L261.469,387.087L263.041,388.284L264.247,389.843L265.004,391.658L265.261,393.605L265,395.551L264.239,397.364L263.03,398.921L261.455,400.115L259.621,400.864L257.654,401.118L257.631,401.118L257.623,401.118L257.327,401.117L257.319,401.117L257.022,401.116L257.015,401.116L256.718,401.114L256.711,401.114L256.414,401.111L256.407,401.111L256.11,401.108L256.102,401.108L255.806,401.104L255.798,401.104L255.502,401.099L255.494,401.099L255.198,401.094L255.19,401.094L254.894,401.088L254.886,401.088L254.59,401.082L254.582,401.082L254.286,401.075L254.278,401.075L253.982,401.067L253.974,401.067L253.678,401.059L253.67,401.059L253.374,401.05L253.367,401.05L253.07,401.041L253.063,401.041L252.767,401.031L252.759,401.031L252.463,401.02L252.455,401.02L252.159,401.009L252.152,401.009L251.856,400.997L251.848,400.997L251.552,400.985L251.545,400.985L251.249,400.972L251.241,400.972L250.945,400.958L250.937,400.958L250.642,400.944L250.634,400.944L250.338,400.929L250.331,400.929L250.035,400.914L250.028,400.913L249.732,400.898L249.724,400.897L249.429,400.881L249.421,400.881L249.126,400.864L249.118,400.863L248.823,400.846L248.815,400.846L248.52,400.828L248.512,400.827L248.217,400.808L248.209,400.808L247.914,400.789L247.906,400.788L247.611,400.769L247.603,400.768L247.308,400.748L247.3,400.747L247.005,400.726L246.998,400.726L246.703,400.704L246.695,400.704L246.4,400.681L246.392,400.681L246.098,400.658L246.09,400.658L245.795,400.634L245.788,400.634L245.493,400.61L245.485,400.609L245.191,400.585L245.183,400.584L244.888,400.559L244.881,400.558L244.586,400.533L244.579,400.532L244.285,400.506L244.277,400.505L243.982,400.478L243.974,400.478L243.68,400.45L243.673,400.449L243.378,400.421L243.371,400.421L243.077,400.392L243.069,400.391L242.775,400.362L242.767,400.361L242.473,400.332L242.466,400.331L242.172,400.301L242.164,400.3L241.87,400.269L241.863,400.268L241.676,400.248L241.569,400.237L241.562,400.236L241.268,400.204L241.26,400.203L240.967,400.17L240.959,400.169L240.666,400.136L240.658,400.135L240.365,400.101L240.357,400.1L240.064,400.066L240.056,400.065L239.763,400.03L239.755,400.029L239.462,399.994L239.455,399.993L239.162,399.957L239.154,399.956L238.861,399.919L238.854,399.918L238.561,399.881L238.553,399.88L238.26,399.842L238.253,399.841L237.96,399.802L237.953,399.801L237.66,399.762L237.653,399.761L237.36,399.721L237.352,399.72L237.06,399.68L237.053,399.679L236.761,399.638L236.753,399.637L236.461,399.596L236.453,399.595L236.161,399.553L236.153,399.551L235.862,399.509L235.854,399.508L235.562,399.465L235.555,399.463L235.263,399.42L235.255,399.419L234.964,399.374L234.956,399.373L234.665,399.328L234.657,399.327L234.366,399.281L234.358,399.28L234.067,399.234L234.059,399.233L233.768,399.186L233.761,399.185L233.47,399.138L233.462,399.137L233.171,399.089L233.164,399.088L232.873,399.039L232.865,399.038L232.574,398.989L232.567,398.988L232.276,398.938L232.269,398.937L231.979,398.887L231.971,398.885L231.68,398.835L231.673,398.833L231.383,398.782L231.375,398.781L231.085,398.729L231.077,398.727L230.787,398.675L230.78,398.673L230.49,398.62L230.482,398.619L230.193,398.565L230.185,398.564L229.896,398.51L229.888,398.508L229.599,398.454L229.591,398.452L229.302,398.397L229.294,398.395L229.005,398.339L228.998,398.338L228.709,398.281L228.701,398.28L228.412,398.223L228.405,398.221L228.116,398.164L228.108,398.162L227.82,398.104L227.812,398.102L227.523,398.043L227.516,398.042L227.228,397.983L227.22,397.981L226.932,397.921L226.924,397.919L226.636,397.859L226.629,397.857L226.341,397.796L226.333,397.794L226.045,397.733L226.038,397.731L225.75,397.669L225.743,397.667L225.455,397.604L225.448,397.603L225.16,397.539L225.153,397.537L224.865,397.473L224.858,397.472L224.571,397.407L224.563,397.405L224.276,397.34L224.269,397.338L223.982,397.273L223.975,397.271L223.688,397.205L223.681,397.203L223.394,397.136L223.386,397.134L223.1,397.067L223.092,397.065L222.806,396.997L222.799,396.995L222.513,396.926L222.505,396.924L222.449,396.911L216.958,399.709L215.09,400.372L213.113,400.534L211.161,400.184L209.367,399.346L207.854,398.077L206.723,396.463L206.053,394.615L205.89,392.658L206.243,390.726L207.09,388.95L208.372,387.452L210.002,386.333L219.309,381.592L222.112,381.29L223.745,381.717ZM331.768,366.555L333.62,367.259L335.226,368.412L336.474,369.938L337.282,371.732L337.593,373.671L337.386,375.624L336.675,377.457L335.51,379.046L333.968,380.282L333.69,380.451L333.681,380.456L333.359,380.65L333.35,380.656L333.028,380.849L333.018,380.855L332.695,381.047L332.686,381.052L332.363,381.244L332.353,381.249L332.029,381.44L332.02,381.445L331.695,381.635L331.685,381.641L331.36,381.829L331.35,381.835L331.024,382.023L331.014,382.028L330.687,382.216L330.678,382.221L330.35,382.407L330.341,382.413L330.013,382.598L330.003,382.603L329.674,382.788L329.665,382.793L329.335,382.977L329.326,382.983L328.995,383.166L328.986,383.171L328.655,383.353L328.645,383.358L328.314,383.54L328.304,383.545L327.972,383.725L327.962,383.73L327.629,383.91L327.62,383.915L327.286,384.094L327.276,384.099L326.942,384.277L326.933,384.282L326.598,384.459L326.588,384.464L326.253,384.64L326.243,384.645L325.907,384.82L325.897,384.825L325.56,385L325.551,385.005L325.213,385.178L325.204,385.183L324.865,385.356L324.856,385.361L324.517,385.533L324.507,385.537L324.168,385.708L324.158,385.713L323.818,385.883L323.808,385.888L323.468,386.057L323.458,386.062L323.117,386.231L323.107,386.235L322.765,386.403L322.755,386.407L322.413,386.574L322.403,386.579L322.06,386.744L322.05,386.749L321.706,386.914L321.696,386.919L321.352,387.083L321.342,387.087L320.997,387.25L320.987,387.255L320.641,387.417L320.632,387.421L320.285,387.583L320.276,387.587L319.929,387.748L319.919,387.752L319.808,387.803C319.808,387.803 319.571,387.912 319.571,387.912L319.562,387.916L319.213,388.075L319.204,388.079L318.855,388.237L318.845,388.241L318.496,388.398L318.486,388.402L318.136,388.558L318.126,388.563L317.775,388.718L317.766,388.722L317.414,388.876L317.404,388.88L317.052,389.034L317.043,389.038L316.69,389.19L316.681,389.194L316.328,389.346L316.318,389.35L315.964,389.501L315.954,389.505L315.6,389.654L315.59,389.658L315.235,389.807L315.225,389.811L314.87,389.959L314.86,389.963L314.504,390.11L314.494,390.114L314.138,390.26L314.128,390.264L313.771,390.409L313.761,390.413L313.403,390.557L313.393,390.561L313.035,390.704L313.025,390.708L312.666,390.85L312.656,390.854L312.297,390.995L312.287,390.999L311.927,391.14L311.917,391.144L311.556,391.283L311.546,391.287L311.185,391.425L311.175,391.429L310.813,391.567L310.803,391.571L310.441,391.707L310.431,391.711L310.068,391.847L310.058,391.85L309.694,391.985L309.685,391.989L309.321,392.123L309.311,392.126L308.946,392.259L308.936,392.263L308.571,392.395L308.561,392.398L308.195,392.529L308.185,392.533L307.819,392.663L307.809,392.667L307.442,392.796L307.432,392.799L307.065,392.927L307.055,392.931L306.687,393.058L306.677,393.061L306.309,393.188L306.299,393.191L305.93,393.316L305.92,393.32L305.55,393.444L305.54,393.448L305.17,393.571L305.16,393.574L304.789,393.697L304.779,393.7L304.408,393.822L304.398,393.825L304.027,393.945L304.017,393.949L303.644,394.068L303.634,394.071L303.262,394.19L303.251,394.193L302.878,394.311L302.868,394.314L302.495,394.43L302.484,394.434L302.11,394.549L302.1,394.552L301.725,394.667L301.715,394.67L301.34,394.784L301.33,394.787L300.954,394.9L300.944,394.903L300.567,395.014L300.557,395.017L300.18,395.128L300.17,395.131L299.793,395.241L299.783,395.244L299.405,395.353L299.395,395.356L299.016,395.463L299.006,395.466L298.628,395.573L298.617,395.576L298.238,395.682L298.228,395.685L297.848,395.79L297.838,395.792L297.457,395.896L297.447,395.899L297.066,396.002L297.056,396.005L296.675,396.106L296.664,396.109L296.283,396.21L296.272,396.213L295.89,396.313L295.88,396.315L295.497,396.414L295.487,396.417L295.103,396.515L295.093,396.517L294.71,396.614L294.699,396.617L294.315,396.712L294.305,396.715L293.92,396.81L293.91,396.812L293.525,396.906L293.514,396.909L293.129,397.002L293.118,397.004L292.732,397.096L292.722,397.098L292.335,397.189L292.325,397.191L291.938,397.281L291.928,397.284L291.54,397.372L291.53,397.375L291.142,397.462L291.132,397.465L290.743,397.551L290.733,397.554L290.344,397.639L290.334,397.642L289.944,397.726L289.934,397.729L289.544,397.812L289.534,397.814L289.427,397.837L287.449,397.994L285.498,397.638L283.707,396.795L282.197,395.522L281.071,393.905L280.407,392.055L280.248,390.097L280.607,388.166L281.459,386.393L282.746,384.898L284.379,383.784L286.248,383.126L286.34,383.107L286.699,383.03L287.057,382.952L287.415,382.873L287.772,382.793L288.129,382.713L288.486,382.631L288.842,382.548L289.198,382.465L289.553,382.38L289.908,382.295L290.262,382.209L290.616,382.121L290.97,382.033L291.323,381.944L291.675,381.854L292.027,381.763L292.379,381.671L292.73,381.579L293.081,381.485L293.431,381.39L293.78,381.295L294.13,381.198L294.478,381.101L294.827,381.003L295.175,380.904L295.522,380.804L295.869,380.703L296.215,380.601L296.561,380.498L296.906,380.395L297.251,380.29L297.596,380.185L297.939,380.079L298.283,379.971L298.626,379.863L298.968,379.754L299.31,379.645L299.652,379.534L299.993,379.422L300.333,379.31L300.673,379.196L301.012,379.082L301.351,378.967L301.689,378.851L302.027,378.734L302.365,378.617L302.701,378.498L303.038,378.379L303.373,378.258L303.709,378.137L304.043,378.015L304.378,377.892L304.711,377.769L305.044,377.644L305.377,377.519L305.709,377.392L306.04,377.265L306.371,377.137L306.702,377.008L307.032,376.879L307.361,376.748L307.69,376.617L308.018,376.485L308.346,376.352L308.673,376.218L308.999,376.083L309.325,375.948L309.651,375.811L309.976,375.674L310.3,375.536L310.624,375.397L310.947,375.257L311.27,375.117L311.592,374.976L311.913,374.833L312.234,374.691L312.555,374.547L312.874,374.402L313.194,374.257L313.416,374.155L313.512,374.111L313.83,373.964L314.148,373.816L314.465,373.667L314.781,373.518L315.097,373.367L315.412,373.216L315.726,373.065L316.04,372.912L316.353,372.759L316.666,372.604L316.978,372.449L317.29,372.294L317.601,372.137L317.911,371.98L318.221,371.822L318.53,371.663L318.838,371.503L319.146,371.342L319.453,371.181L319.76,371.019L320.066,370.856L320.371,370.693L320.676,370.528L320.98,370.363L321.284,370.197L321.587,370.03L321.889,369.863L322.19,369.695L322.491,369.526L322.792,369.356L323.091,369.186L323.39,369.015L323.689,368.843L323.987,368.67L324.284,368.496L324.58,368.322L324.876,368.147L325.171,367.971L325.466,367.795L325.76,367.618L326.024,367.457L327.836,366.658L329.795,366.351L331.768,366.555ZM147.141,325.617L148.97,326.378L150.537,327.583L151.735,329.147L151.835,329.321L151.992,329.591L152.15,329.861L152.308,330.131L152.468,330.4L152.628,330.669L152.79,330.937L152.952,331.205L153.115,331.473L153.279,331.74L153.445,332.007L153.611,332.273L153.778,332.539L153.945,332.805L154.114,333.07L154.284,333.335L154.455,333.6L154.626,333.864L154.799,334.128L154.973,334.391L155.147,334.654L155.322,334.916L155.499,335.179L155.676,335.44L155.854,335.701L156.033,335.962L156.213,336.223L156.394,336.483L156.575,336.742L156.758,337.002L156.942,337.26L157.126,337.519L157.312,337.777L157.498,338.034L157.686,338.291L157.874,338.548L158.063,338.804L158.253,339.06L158.444,339.315L158.636,339.57L158.828,339.825L159.022,340.079L159.217,340.332L159.412,340.585L159.609,340.838L159.806,341.09L160.004,341.342L160.203,341.593L160.403,341.844L160.604,342.094L160.806,342.344L161.009,342.594L161.213,342.843L161.417,343.091L161.623,343.339L161.829,343.587L162.036,343.834L162.245,344.081L162.454,344.327L162.664,344.573L162.874,344.818L163.086,345.062L163.299,345.307L163.512,345.55L163.727,345.794L163.942,346.036L164.158,346.279L164.376,346.52L164.594,346.762L164.812,347.003L165.032,347.243L165.253,347.483L165.475,347.722L165.697,347.961L165.92,348.199L166.145,348.437L166.37,348.674L166.596,348.911L166.823,349.147L167.05,349.383L167.279,349.618L167.509,349.852L167.739,350.087L167.97,350.32L168.203,350.553L168.436,350.786L168.67,351.018L168.904,351.249L169.14,351.48L169.377,351.711L169.614,351.941L169.853,352.17L170.092,352.399L170.332,352.627L170.573,352.855L170.815,353.082L171.057,353.309L171.301,353.535L171.545,353.76L173.061,355.15L174.332,358.315L173.479,370.888L173.089,372.813L172.209,374.573L170.898,376.047L169.247,377.135L167.368,377.763L165.388,377.888L163.443,377.502L161.665,376.631L160.176,375.334L159.076,373.7L158.442,371.839L158.315,369.88L158.814,362.528L158.738,362.454L158.73,362.446L158.468,362.192L158.46,362.183L158.263,361.99L158.2,361.929L158.192,361.921L157.933,361.665L157.924,361.657L157.666,361.401L157.658,361.393L157.401,361.136L157.393,361.128L157.136,360.87L157.128,360.862L156.873,360.604L156.865,360.596L156.61,360.337L156.602,360.329L156.348,360.07L156.34,360.062L156.088,359.802L156.08,359.794L155.828,359.533L155.82,359.525L155.569,359.264L155.561,359.255L155.311,358.994L155.304,358.986L155.055,358.723L155.047,358.715L154.799,358.452L154.791,358.444L154.544,358.18L154.536,358.172L154.29,357.908L154.282,357.899L154.037,357.635L154.029,357.626L153.785,357.361L153.777,357.352L153.534,357.087L153.527,357.078L153.284,356.812L153.277,356.803L153.035,356.536L153.028,356.528L152.787,356.26L152.78,356.251L152.54,355.983L152.533,355.975L152.294,355.706L152.287,355.697L152.049,355.428L152.042,355.419L151.805,355.149L151.798,355.141L151.562,354.87L151.554,354.861L151.32,354.59L151.312,354.582L151.079,354.31L151.071,354.301L150.839,354.029L150.831,354.02L150.6,353.748L150.592,353.739L150.361,353.465L150.354,353.457L150.124,353.183L150.117,353.174L149.888,352.899L149.881,352.89L149.653,352.616L149.646,352.607L149.419,352.331L149.412,352.322L149.186,352.046L149.178,352.037L148.953,351.761L148.946,351.752L148.722,351.474L148.715,351.465L148.492,351.188L148.485,351.179L148.263,350.9L148.256,350.891L148.035,350.612L148.028,350.603L147.808,350.324L147.8,350.315L147.582,350.035L147.574,350.026L147.356,349.745L147.349,349.736L147.132,349.455L147.125,349.446L146.909,349.165L146.902,349.155L146.687,348.873L146.68,348.864L146.466,348.582L146.459,348.572L146.246,348.289L146.239,348.28L146.027,347.996L146.02,347.987L145.809,347.703L145.802,347.694L145.592,347.409L145.585,347.399L145.376,347.114L145.369,347.105L145.161,346.819L145.154,346.81L144.947,346.524L144.94,346.514L144.734,346.228L144.727,346.218L144.522,345.931L144.515,345.921L144.311,345.634L144.304,345.624L144.101,345.336L144.094,345.326L143.892,345.038L143.885,345.028L143.684,344.739L143.678,344.729L143.478,344.44L143.471,344.43L143.272,344.14L143.265,344.13L143.067,343.84L143.06,343.83L142.863,343.539L142.857,343.529L142.661,343.237L142.654,343.228L142.459,342.936L142.452,342.926L142.258,342.633L142.252,342.623L142.059,342.33L142.052,342.32L141.86,342.027L141.854,342.017L141.663,341.723L141.656,341.713L141.466,341.418L141.46,341.408L141.271,341.113L141.264,341.104L141.076,340.808L141.07,340.798L140.883,340.502L140.877,340.492L140.691,340.196L140.684,340.186L140.5,339.889L140.493,339.879L140.309,339.582L140.303,339.572L140.12,339.274L140.114,339.264L139.932,338.965L139.926,338.955L139.745,338.657L139.739,338.646L139.559,338.347L139.553,338.337L139.374,338.038L139.368,338.027L139.19,337.727L139.184,337.717L139.007,337.417L139.001,337.406L138.825,337.105L138.819,337.095L138.645,336.794L138.639,336.783L138.53,336.594L137.781,334.776L137.534,332.828L137.804,330.882L138.573,329.073L139.79,327.522L141.371,326.335L143.208,325.594L145.176,325.349L147.141,325.617ZM380.646,310.325L382.404,311.236L383.863,312.566L384.925,314.225L385.517,316.099L385.598,318.061L385.164,319.977L385.113,320.113L385.109,320.125L384.984,320.458L384.98,320.47L384.854,320.803L384.849,320.815L384.722,321.147L384.717,321.159L384.589,321.491L384.585,321.503L384.455,321.835L384.451,321.847L384.32,322.177L384.316,322.189L384.184,322.52L384.179,322.532L384.046,322.862L384.042,322.874L383.908,323.203L383.903,323.215L383.768,323.544L383.763,323.556L383.627,323.884L383.622,323.896L383.485,324.224L383.48,324.236L383.342,324.564L383.337,324.575L383.198,324.902L383.193,324.914L383.052,325.241L383.047,325.252L382.906,325.578L382.901,325.59L382.758,325.916L382.753,325.927L382.609,326.253L382.604,326.264L382.459,326.589L382.454,326.6L382.308,326.924L382.303,326.936L382.155,327.26L382.15,327.271L382.002,327.594L381.997,327.606L381.848,327.928L381.842,327.94L381.692,328.262L381.686,328.274L381.535,328.595L381.53,328.607L381.377,328.928L381.372,328.939L381.218,329.26L381.213,329.271L381.058,329.591L381.052,329.603L380.897,329.922L380.891,329.934L380.734,330.253L380.729,330.264L380.571,330.583L380.565,330.594L380.406,330.912L380.401,330.923L380.241,331.241L380.235,331.252L380.074,331.569L380.068,331.58L379.906,331.897L379.9,331.908L379.737,332.224L379.731,332.235L379.567,332.551L379.561,332.562L379.396,332.877L379.39,332.888L379.224,333.202L379.218,333.213L379.05,333.527L379.044,333.538L378.876,333.852L378.87,333.862L378.7,334.175L378.694,334.186L378.524,334.499L378.518,334.51L378.428,334.672L378.346,334.821L378.34,334.832L378.168,335.143L378.161,335.154L377.988,335.465L377.982,335.476L377.807,335.786L377.801,335.797L377.625,336.107L377.619,336.117L377.442,336.427L377.436,336.437L377.258,336.746L377.252,336.756L377.073,337.064L377.067,337.075L376.887,337.382L376.88,337.393L376.699,337.7L376.693,337.711L376.511,338.017L376.505,338.028L376.322,338.333L376.315,338.344L376.131,338.649L376.125,338.66L375.94,338.964L375.934,338.975L375.748,339.279L375.741,339.289L375.554,339.593L375.548,339.603L375.359,339.906L375.353,339.917L375.164,340.219L375.157,340.23L374.967,340.532L374.961,340.542L374.77,340.843L374.763,340.853L374.571,341.154L374.564,341.164L374.371,341.465L374.365,341.475L374.17,341.775L374.164,341.785L373.969,342.084L373.962,342.094L373.766,342.392L373.759,342.403L373.562,342.701L373.555,342.711L373.357,343.008L373.35,343.018L373.151,343.315L373.145,343.325L372.944,343.621L372.938,343.631L372.736,343.927L372.73,343.936L372.528,344.231L372.521,344.241L372.318,344.536L372.311,344.546L372.107,344.839L372.1,344.849L371.895,345.142L371.888,345.152L371.682,345.445L371.675,345.455L371.468,345.747L371.461,345.756L371.253,346.048L371.246,346.058L371.037,346.349L371.03,346.358L370.821,346.649L370.814,346.658L370.603,346.948L370.596,346.958L370.384,347.247L370.377,347.256L370.164,347.545L370.157,347.554L369.943,347.842L369.936,347.851L369.722,348.139L369.714,348.148L369.499,348.435L369.492,348.444L369.275,348.73L369.268,348.74L369.05,349.025L369.043,349.035L368.825,349.319L368.817,349.329L368.598,349.613L368.591,349.622L368.37,349.906L368.363,349.915L368.142,350.198L368.134,350.207L367.912,350.49L367.905,350.499L367.682,350.781L367.674,350.79L367.45,351.071L367.443,351.08L367.218,351.361L367.21,351.37L366.984,351.65L366.977,351.659L366.75,351.938L366.743,351.947L366.515,352.226L366.507,352.235L366.279,352.513L366.271,352.521L366.042,352.799L366.034,352.808L365.803,353.084L365.796,353.093L365.564,353.369L365.557,353.378L365.324,353.654L365.317,353.663L365.083,353.937L365.076,353.946L364.842,354.22L364.834,354.229L364.599,354.503L364.591,354.511L364.355,354.784L364.347,354.793L364.11,355.065L364.103,355.074L363.865,355.345L363.857,355.354L363.618,355.625L363.611,355.633L363.371,355.904L363.363,355.912L363.123,356.182L363.115,356.19L362.874,356.459L362.866,356.468L362.623,356.736L362.616,356.745L362.372,357.012L362.365,357.021L362.12,357.288L362.113,357.296L361.867,357.562L361.86,357.571L361.614,357.837L361.606,357.845L361.359,358.11L361.351,358.118L361.103,358.383L361.096,358.391L360.847,358.654L360.839,358.663L360.59,358.926L360.582,358.934L360.331,359.196L360.323,359.204L360.072,359.466L360.064,359.474L359.812,359.735L359.804,359.743L359.551,360.003L359.543,360.012L359.289,360.271L359.281,360.279L359.149,360.413L357.591,361.629L355.769,362.404L353.806,362.686L351.835,362.455L349.993,361.728L348.403,360.553L347.175,359.011L346.392,357.207L346.107,355.264L346.34,353.314L347.075,351.49L348.262,349.917L348.382,349.794L348.612,349.559L348.841,349.324L349.07,349.088L349.297,348.851L349.524,348.613L349.75,348.375L349.975,348.137L350.199,347.898L350.422,347.658L350.645,347.418L350.867,347.177L351.088,346.935L351.308,346.693L351.527,346.451L351.745,346.208L351.963,345.964L352.18,345.72L352.395,345.475L352.61,345.23L352.825,344.984L353.038,344.737L353.251,344.49L353.462,344.243L353.673,343.994L353.883,343.746L354.092,343.497L354.3,343.247L354.508,342.996L354.714,342.746L354.92,342.494L355.124,342.242L355.328,341.99L355.531,341.737L355.734,341.483L355.935,341.229L356.135,340.975L356.335,340.719L356.534,340.464L356.731,340.208L356.928,339.951L357.124,339.694L357.32,339.436L357.514,339.178L357.707,338.919L357.9,338.66L358.092,338.4L358.282,338.14L358.472,337.879L358.661,337.617L358.849,337.356L359.036,337.093L359.223,336.83L359.408,336.567L359.592,336.303L359.776,336.039L359.959,335.774L360.14,335.509L360.321,335.243L360.501,334.977L360.68,334.71L360.858,334.442L361.036,334.175L361.212,333.907L361.387,333.638L361.562,333.369L361.735,333.099L361.908,332.829L362.079,332.558L362.25,332.287L362.42,332.015L362.589,331.743L362.757,331.471L362.924,331.198L363.09,330.924L363.255,330.65L363.419,330.376L363.583,330.101L363.745,329.826L363.906,329.55L364.067,329.274L364.226,328.997L364.385,328.72L364.542,328.442L364.699,328.164L364.855,327.886L365.01,327.607L365.083,327.474L365.163,327.328L365.316,327.048L365.468,326.767L365.619,326.487L365.769,326.206L365.918,325.924L366.066,325.642L366.213,325.36L366.359,325.077L366.504,324.793L366.649,324.51L366.792,324.226L366.934,323.941L367.075,323.656L367.216,323.371L367.355,323.085L367.493,322.798L367.631,322.512L367.767,322.224L367.902,321.937L368.037,321.649L368.17,321.361L368.302,321.072L368.434,320.783L368.564,320.493L368.694,320.203L368.822,319.913L368.949,319.622L369.076,319.331L369.201,319.039L369.326,318.747L369.449,318.455L369.571,318.162L369.693,317.869L369.813,317.575L369.933,317.281L370.051,316.987L370.168,316.692L370.285,316.397L370.4,316.101L370.514,315.805L370.628,315.509L370.74,315.212L370.851,314.915L370.895,314.796L371.816,313.057L373.159,311.612L374.835,310.561L376.729,309.976L378.711,309.895L380.646,310.325ZM136.382,252.902L138.231,253.615L139.83,254.777L141.07,256.309L141.868,258.107L142.169,260.048L141.951,262L141.925,262.104L141.85,262.413L141.775,262.723L141.702,263.033L141.63,263.343L141.559,263.653L141.489,263.964L141.42,264.276L141.352,264.587L141.285,264.899L141.219,265.211L141.154,265.524L141.091,265.836L141.028,266.15L140.967,266.463L140.907,266.777L140.848,267.091L140.79,267.405L140.733,267.72L140.677,268.035L140.622,268.351L140.568,268.666L140.516,268.982L140.465,269.299L140.414,269.615L140.365,269.932L140.317,270.249L140.27,270.567L140.224,270.885L140.18,271.203L140.136,271.521L140.094,271.84L140.053,272.159L140.012,272.478L139.973,272.798L139.936,273.118L139.899,273.438L139.863,273.759L139.829,274.079L139.795,274.401L139.763,274.722L139.732,275.044L139.702,275.366L139.674,275.688L139.646,276.01L139.62,276.333L139.594,276.656L139.57,276.98L139.547,277.303L139.525,277.627L139.505,277.952L139.485,278.276L139.467,278.601L139.45,278.926L139.434,279.251L139.419,279.577L139.406,279.903L139.393,280.229L139.382,280.555L139.372,280.882L139.363,281.209L139.355,281.536L139.348,281.864L139.343,282.192L139.339,282.52L139.336,282.848L139.334,283.177L139.334,283.506L139.334,283.811L139.336,284.117L139.338,284.423L139.342,284.729L139.347,285.034L139.353,285.34L139.359,285.645L139.367,285.951L139.376,286.256L139.386,286.561L139.397,286.866L139.409,287.171L139.422,287.475L139.437,287.78L139.452,288.085L139.468,288.389L139.485,288.693L139.504,288.997L139.523,289.301L139.544,289.605L139.565,289.909L139.588,290.213L139.611,290.516L139.636,290.82L139.661,291.123L139.688,291.426L139.716,291.729L139.744,292.032L139.774,292.335L139.805,292.637L139.837,292.939L139.869,293.242L139.903,293.544L139.938,293.846L139.974,294.148L140.011,294.449L140.049,294.751L140.088,295.052L140.128,295.354L140.169,295.655L140.211,295.956L140.254,296.256L140.298,296.557L140.344,296.857L140.39,297.158L140.437,297.458L140.485,297.758L140.534,298.057L140.584,298.357L140.636,298.656L140.688,298.956L140.741,299.255L140.796,299.553L140.851,299.852L140.907,300.151L140.964,300.449L141.023,300.747L141.082,301.045L141.142,301.343L141.204,301.64L141.266,301.938L141.33,302.235L141.394,302.532L141.459,302.829L141.526,303.125L141.562,303.283L141.741,305.239L141.403,307.174L140.57,308.956L139.3,310.464L137.679,311.596L135.817,312.273L133.841,312.451L131.886,312.116L130.086,311.292L128.562,310.034L127.419,308.429L126.734,306.587L126.694,306.41L126.691,306.398L126.617,306.064L126.614,306.052L126.541,305.719L126.538,305.706L126.465,305.372L126.463,305.36L126.392,305.026L126.389,305.014L126.319,304.679L126.316,304.667L126.247,304.333L126.245,304.32L126.177,303.985L126.174,303.973L126.108,303.638L126.105,303.626L126.04,303.291L126.037,303.278L125.973,302.943L125.971,302.93L125.907,302.595L125.905,302.582L125.843,302.246L125.84,302.234L125.779,301.898L125.777,301.885L125.717,301.549L125.715,301.537L125.656,301.2L125.654,301.187L125.596,300.851L125.594,300.838L125.538,300.501L125.536,300.489L125.48,300.152L125.478,300.139L125.424,299.802L125.422,299.789L125.369,299.452L125.367,299.439L125.315,299.101L125.313,299.089L125.263,298.751L125.261,298.738L125.211,298.4L125.209,298.387L125.161,298.049L125.159,298.036L125.112,297.698L125.11,297.685L125.064,297.347L125.062,297.334L125.017,296.995L125.015,296.982L124.971,296.643L124.97,296.631L124.927,296.291L124.926,296.279L124.884,295.939L124.882,295.927L124.842,295.587L124.841,295.574L124.801,295.234L124.8,295.222L124.762,294.882L124.76,294.869L124.723,294.529L124.722,294.516L124.686,294.176L124.685,294.163L124.65,293.822L124.649,293.81L124.615,293.469L124.614,293.456L124.582,293.115L124.581,293.103L124.55,292.762L124.548,292.749L124.518,292.408L124.517,292.395L124.489,292.054L124.487,292.041L124.46,291.699L124.459,291.687L124.432,291.345L124.431,291.332L124.406,290.99L124.405,290.978L124.381,290.636L124.38,290.623L124.376,290.563L124.357,290.281L124.356,290.268L124.334,289.926L124.334,289.913L124.313,289.57L124.312,289.558L124.293,289.215L124.292,289.202L124.274,288.86L124.273,288.847L124.256,288.504L124.255,288.491L124.239,288.148L124.239,288.136L124.224,287.792L124.223,287.78L124.21,287.436L124.209,287.424L124.197,287.08L124.197,287.067L124.185,286.724L124.185,286.711L124.175,286.367L124.174,286.355L124.166,286.011L124.165,285.998L124.158,285.654L124.157,285.641L124.151,285.297L124.151,285.285L124.145,284.941L124.145,284.928L124.141,284.584L124.141,284.571L124.138,284.226L124.138,284.214L124.136,283.869L124.136,283.856L124.135,283.512L124.135,283.498L124.136,283.129L124.136,283.116L124.138,282.747L124.138,282.733L124.141,282.364L124.142,282.351L124.146,281.982L124.146,281.968L124.152,281.6L124.153,281.587L124.16,281.218L124.16,281.205L124.169,280.837L124.169,280.824L124.179,280.456L124.18,280.443L124.191,280.075L124.192,280.062L124.204,279.695L124.205,279.681L124.219,279.315L124.219,279.301L124.235,278.935L124.235,278.921L124.252,278.555L124.253,278.542L124.27,278.176L124.271,278.162L124.29,277.797L124.291,277.783L124.312,277.418L124.313,277.404L124.334,277.039L124.335,277.026L124.358,276.661L124.359,276.648L124.384,276.284L124.385,276.27L124.411,275.906L124.412,275.893L124.439,275.529L124.44,275.515L124.468,275.152L124.469,275.138L124.499,274.775L124.5,274.762L124.531,274.399L124.532,274.386L124.565,274.023L124.566,274.01L124.6,273.647L124.601,273.634L124.636,273.272L124.637,273.259L124.673,272.897L124.675,272.884L124.712,272.522L124.713,272.509L124.752,272.148L124.754,272.135L124.794,271.774L124.795,271.761L124.837,271.4L124.838,271.387L124.881,271.027L124.882,271.014L124.926,270.654L124.928,270.641L124.973,270.281L124.975,270.268L125.021,269.909L125.023,269.896L125.071,269.537L125.073,269.524L125.121,269.166L125.123,269.152L125.174,268.794L125.175,268.781L125.227,268.423L125.229,268.41L125.282,268.053L125.284,268.04L125.338,267.683L125.34,267.669L125.395,267.313L125.397,267.3L125.454,266.943L125.456,266.93L125.514,266.574L125.516,266.561L125.575,266.206L125.577,266.192L125.637,265.837L125.64,265.824L125.701,265.469L125.704,265.456L125.766,265.102L125.769,265.088L125.833,264.734L125.835,264.721L125.9,264.367L125.903,264.354L125.969,264.001L125.972,263.988L126.04,263.635L126.042,263.622L126.111,263.269L126.114,263.256L126.184,262.904L126.187,262.891L126.258,262.539L126.261,262.526L126.334,262.174L126.336,262.161L126.41,261.81L126.413,261.797L126.488,261.446L126.491,261.433L126.567,261.083L126.57,261.07L126.648,260.72L126.651,260.707L126.73,260.357L126.733,260.344L126.813,259.995L126.816,259.982L126.897,259.633L126.9,259.62L126.982,259.272L126.985,259.259L127.069,258.911L127.072,258.898L127.157,258.55L127.16,258.538L127.191,258.414L127.911,256.584L129.085,255.002L130.633,253.774L132.45,252.984L134.41,252.687L136.382,252.902ZM385.724,261.512L387.463,262.457L388.896,263.815L389.924,265.494L390.478,267.379L390.523,267.669L390.525,267.683L390.58,268.04L390.582,268.053L390.634,268.41L390.636,268.423L390.688,268.781L390.69,268.794L390.74,269.152L390.742,269.166L390.791,269.524L390.792,269.537L390.84,269.896L390.842,269.909L390.888,270.268L390.89,270.281L390.935,270.641L390.937,270.654L390.981,271.014L390.982,271.027L391.025,271.387L391.027,271.401L391.068,271.761L391.069,271.774L391.109,272.135L391.111,272.148L391.15,272.509L391.151,272.522L391.189,272.884L391.19,272.897L391.226,273.259L391.228,273.272L391.262,273.634L391.264,273.647L391.297,274.01L391.299,274.023L391.331,274.385L391.332,274.399L391.363,274.762L391.364,274.775L391.394,275.138L391.395,275.152L391.423,275.515L391.424,275.529L391.452,275.893L391.453,275.906L391.478,276.27L391.479,276.284L391.504,276.648L391.505,276.661L391.528,277.026L391.529,277.039L391.551,277.404L391.551,277.418L391.572,277.783L391.573,277.797L391.592,278.162L391.593,278.176L391.611,278.541L391.611,278.555L391.628,278.921L391.629,278.935L391.644,279.301L391.644,279.315L391.658,279.681L391.659,279.695L391.672,280.062L391.672,280.075L391.683,280.443L391.684,280.456L391.694,280.823L391.694,280.837L391.703,281.205L391.703,281.218L391.71,281.586L391.711,281.6L391.717,281.968L391.717,281.982L391.722,282.351L391.722,282.364L391.725,282.733L391.725,282.747L391.727,283.116L391.727,283.129L391.728,283.492L391.726,283.505L391.728,283.519L391.727,283.882L391.727,283.895L391.725,284.264L391.725,284.278L391.722,284.647L391.722,284.66L391.717,285.029L391.717,285.042L391.711,285.411L391.71,285.424L391.703,285.792L391.703,285.806L391.694,286.174L391.694,286.187L391.684,286.555L391.683,286.568L391.672,286.935L391.672,286.949L391.659,287.316L391.658,287.329L391.644,287.696L391.644,287.71L391.629,288.076L391.628,288.089L391.616,288.348L391.269,290.282L390.428,292.06L389.151,293.563L387.525,294.687L385.66,295.356L383.683,295.525L381.73,295.181L379.933,294.349L378.415,293.085L377.28,291.475L376.604,289.629L376.433,287.673L376.444,287.434L376.458,287.108L376.47,286.782L376.481,286.455L376.491,286.129L376.5,285.802L376.508,285.474L376.515,285.147L376.52,284.819L376.524,284.491L376.527,284.163L376.529,283.834L376.53,283.505L376.529,283.177L376.527,282.848L376.524,282.52L376.52,282.192L376.515,281.864L376.508,281.536L376.5,281.209L376.491,280.882L376.481,280.555L376.47,280.229L376.458,279.903L376.444,279.577L376.429,279.251L376.413,278.926L376.396,278.601L376.378,278.276L376.358,277.952L376.338,277.627L376.316,277.303L376.293,276.98L376.269,276.656L376.244,276.333L376.217,276.01L376.19,275.688L376.161,275.366L376.131,275.044L376.1,274.722L376.068,274.401L376.034,274.079L376,273.759L375.964,273.438L375.928,273.118L375.89,272.798L375.851,272.479L375.811,272.159L375.769,271.84L375.727,271.521L375.683,271.203L375.639,270.885L375.593,270.567L375.546,270.249L375.498,269.932L375.456,269.662L375.414,267.699L375.886,265.792L376.841,264.071L378.213,262.653L379.909,261.635L381.814,261.086L383.797,261.044L385.724,261.512ZM347.347,197.246L349.233,197.857L350.894,198.93L351.025,199.041L351.033,199.048L351.312,199.286L351.32,199.294L351.599,199.533L351.607,199.54L351.884,199.78L351.893,199.787L352.169,200.028L352.178,200.035L352.453,200.276L352.462,200.284L352.737,200.526L352.745,200.533L353.019,200.776L353.028,200.783L353.301,201.026L353.309,201.034L353.582,201.278L353.59,201.286L353.862,201.53L353.87,201.538L354.141,201.783L354.149,201.791L354.419,202.037L354.427,202.045L354.696,202.292L354.705,202.299L354.973,202.547L354.981,202.555L355.249,202.803L355.257,202.811L355.524,203.06L355.532,203.068L355.798,203.318L355.806,203.325L356.071,203.576L356.079,203.584L356.343,203.835L356.351,203.843L356.615,204.095L356.623,204.102L356.885,204.355L356.893,204.363L357.155,204.616L357.163,204.624L357.424,204.878L357.432,204.886L357.692,205.141L357.7,205.149L357.959,205.404L357.967,205.412L358.225,205.668L358.233,205.676L358.49,205.933L358.498,205.941L358.755,206.198L358.763,206.206L359.019,206.465L359.027,206.473L359.281,206.732L359.289,206.74L359.543,206.999L359.551,207.007L359.804,207.268L359.812,207.276L360.064,207.537L360.072,207.545L360.323,207.806L360.331,207.815L360.582,208.077L360.59,208.085L360.839,208.348L360.847,208.356L361.096,208.62L361.103,208.628L361.351,208.893L361.359,208.901L361.606,209.166L361.614,209.174L361.86,209.44L361.867,209.448L362.113,209.715L362.12,209.723L362.365,209.99L362.372,209.998L362.616,210.266L362.623,210.275L362.866,210.543L362.874,210.551L363.115,210.82L363.123,210.829L363.363,211.098L363.371,211.107L363.611,211.377L363.619,211.386L363.857,211.657L363.865,211.666L364.103,211.937L364.11,211.946L364.347,212.218L364.355,212.227L364.591,212.499L364.599,212.508L364.834,212.782L364.842,212.79L365.076,213.065L365.083,213.073L365.317,213.348L365.324,213.357L365.557,213.632L365.564,213.641L365.796,213.917L365.803,213.926L366.034,214.203L366.042,214.212L366.271,214.489L366.279,214.498L366.507,214.776L366.515,214.785L366.743,215.064L366.75,215.073L366.977,215.352L366.984,215.361L367.21,215.641L367.218,215.65L367.443,215.931L367.45,215.94L367.674,216.221L367.682,216.23L367.905,216.512L367.912,216.521L368.134,216.803L368.142,216.813L368.363,217.096L368.37,217.105L368.591,217.388L368.598,217.398L368.817,217.682L368.825,217.691L369.043,217.976L369.05,217.985L369.268,218.271L369.275,218.28L369.492,218.566L369.499,218.576L369.714,218.863L369.722,218.872L369.936,219.159L369.943,219.169L370.157,219.457L370.164,219.466L370.377,219.755L370.384,219.764L370.596,220.053L370.603,220.063L370.814,220.353L370.821,220.362L371.031,220.652L371.038,220.662L371.246,220.953L371.253,220.963L371.461,221.254L371.468,221.264L371.675,221.556L371.682,221.566L371.888,221.858L371.895,221.868L372.1,222.162L372.107,222.171L372.311,222.465L372.318,222.475L372.521,222.769L372.528,222.779L372.73,223.074L372.737,223.084L372.938,223.38L372.944,223.39L373.145,223.686L373.151,223.696L373.351,223.993L373.357,224.003L373.555,224.3L373.562,224.31L373.759,224.608L373.766,224.618L373.962,224.917L373.969,224.927L374.164,225.226L374.17,225.236L374.365,225.536L374.371,225.546L374.564,225.846L374.571,225.856L374.763,226.157L374.77,226.168L374.961,226.469L374.967,226.479L375.157,226.781L375.164,226.791L375.353,227.094L375.359,227.104L375.548,227.407L375.554,227.418L375.741,227.721L375.748,227.732L375.934,228.036L375.94,228.046L376.125,228.351L376.131,228.361L376.315,228.667L376.322,228.677L376.505,228.983L376.511,228.994L376.693,229.3L376.699,229.311L376.88,229.618L376.887,229.628L377.067,229.936L377.073,229.946L377.252,230.254L377.258,230.265L377.436,230.574L377.442,230.584L377.619,230.893L377.625,230.904L377.801,231.214L377.807,231.225L377.982,231.535L377.988,231.546L378.161,231.856L378.168,231.867L378.34,232.179L378.346,232.189L378.518,232.501L378.524,232.512L378.694,232.824L378.7,232.835L378.87,233.148L378.876,233.159L379.044,233.473L379.05,233.484L379.218,233.798L379.224,233.809L379.39,234.123L379.396,234.134L379.561,234.449L379.567,234.46L379.731,234.776L379.737,234.787L379.9,235.103L379.906,235.114L380.068,235.431L380.074,235.442L380.235,235.759L380.241,235.77L380.401,236.088L380.406,236.099L380.565,236.417L380.571,236.428L380.67,236.628L381.304,238.488L381.429,240.448L381.038,242.373L380.157,244.132L378.846,245.606L377.194,246.693L375.314,247.321L373.334,247.445L371.389,247.058L369.612,246.186L368.123,244.888L367.025,243.253L366.934,243.07L366.792,242.785L366.649,242.501L366.504,242.217L366.359,241.934L366.213,241.651L366.066,241.369L365.918,241.087L365.769,240.805L365.619,240.524L365.468,240.243L365.316,239.963L365.163,239.683L365.01,239.404L364.855,239.125L364.699,238.846L364.542,238.568L364.385,238.291L364.226,238.014L364.067,237.737L363.906,237.461L363.745,237.185L363.583,236.91L363.419,236.635L363.255,236.36L363.09,236.087L362.924,235.813L362.757,235.54L362.589,235.267L362.42,234.995L362.25,234.724L362.079,234.453L361.908,234.182L361.735,233.912L361.562,233.642L361.387,233.373L361.212,233.104L361.036,232.836L360.858,232.568L360.68,232.301L360.501,232.034L360.321,231.768L360.14,231.502L359.959,231.237L359.776,230.972L359.592,230.707L359.408,230.444L359.223,230.18L359.036,229.918L358.849,229.655L358.661,229.393L358.472,229.132L358.282,228.871L358.092,228.611L357.9,228.351L357.707,228.092L357.514,227.833L357.32,227.575L357.124,227.317L356.928,227.06L356.731,226.803L356.534,226.547L356.335,226.291L356.135,226.036L355.935,225.782L355.734,225.528L355.531,225.274L355.328,225.021L355.124,224.768L354.92,224.517L354.714,224.265L354.507,224.014L354.3,223.764L354.092,223.514L353.883,223.265L353.673,223.016L353.462,222.768L353.25,222.521L353.038,222.274L352.825,222.027L352.61,221.781L352.395,221.536L352.18,221.291L351.963,221.047L351.745,220.803L351.527,220.56L351.308,220.317L351.171,220.167L351.088,220.075L350.867,219.834L350.645,219.593L350.422,219.353L350.199,219.113L349.975,218.874L349.75,218.635L349.524,218.397L349.297,218.16L349.07,217.923L348.842,217.687L348.612,217.451L348.382,217.216L348.152,216.982L347.92,216.748L347.688,216.515L347.455,216.282L347.221,216.05L346.986,215.818L346.75,215.588L346.514,215.357L346.277,215.128L346.039,214.898L345.8,214.67L345.56,214.442L345.32,214.215L345.079,213.988L344.837,213.762L344.594,213.537L344.351,213.312L344.107,213.088L343.862,212.864L343.616,212.641L343.369,212.419L343.122,212.197L342.873,211.976L342.625,211.756L342.375,211.536L342.124,211.317L341.873,211.098L341.621,210.881L341.368,210.663L341.115,210.447L340.997,210.347L339.673,208.885L338.777,207.133L338.369,205.211L338.477,203.251L339.094,201.385L340.178,199.74L341.656,198.43L343.425,197.542L345.367,197.139L347.347,197.246ZM177.717,191.904L179.625,192.441L181.327,193.449L182.708,194.859L183.674,196.574L184.158,198.478L184.127,200.442L183.584,202.33L182.566,204.015L181.141,205.382L181.056,205.445L180.785,205.646L180.515,205.847L180.245,206.049L179.976,206.252L179.707,206.455L179.44,206.659L179.173,206.864L178.907,207.07L178.641,207.276L178.376,207.483L178.112,207.69L177.849,207.898L177.587,208.107L177.325,208.316L177.064,208.526L176.804,208.737L176.544,208.949L176.285,209.161L176.027,209.373L175.77,209.587L175.513,209.801L175.258,210.015L175.003,210.231L174.748,210.447L174.495,210.663L174.242,210.881L173.99,211.098L173.739,211.317L173.488,211.536L173.239,211.756L172.99,211.976L172.742,212.197L172.494,212.419L172.248,212.641L172.002,212.864L171.757,213.088L171.512,213.312L171.269,213.537L171.026,213.762L170.784,213.988L170.543,214.215L170.303,214.442L170.063,214.67L169.824,214.899L169.586,215.128L169.349,215.357L169.113,215.588L168.877,215.818L168.643,216.05L168.409,216.282L168.175,216.515L167.943,216.748L167.711,216.982L167.481,217.216L167.251,217.451L167.022,217.687L166.793,217.923L166.566,218.16L166.339,218.397L166.113,218.635L165.888,218.874L165.664,219.113L165.441,219.353L165.218,219.593L164.996,219.834L164.776,220.075L164.556,220.317L164.336,220.56L164.118,220.803L163.9,221.047L163.684,221.291L163.468,221.536L163.253,221.781L163.039,222.027L162.825,222.274L162.613,222.521L162.401,222.768L162.19,223.016L161.98,223.265L161.771,223.514L161.563,223.764L161.356,224.014L161.149,224.265L160.944,224.517L160.739,224.769L160.687,224.832L160.535,225.021L160.332,225.274L160.13,225.528L159.928,225.782L159.728,226.036L159.528,226.291L159.33,226.547L159.132,226.803L158.935,227.06L158.739,227.317L158.544,227.575L158.349,227.833L158.156,228.092L157.963,228.351L157.772,228.611L157.581,228.871L157.391,229.132L157.202,229.393L157.014,229.655L156.827,229.918L156.641,230.18L156.455,230.444L156.271,230.708L156.087,230.972L155.905,231.237L155.723,231.502L155.542,231.768L155.362,232.034L155.183,232.301L155.005,232.568L154.828,232.836L154.651,233.104L154.476,233.373L154.302,233.642L154.128,233.912L153.956,234.182L153.784,234.453L153.613,234.724L153.443,234.995L153.274,235.267L153.106,235.54L152.939,235.813L152.773,236.086L152.62,236.34L151.39,237.88L149.799,239.053L147.956,239.778L145.985,240.006L144.022,239.722L142.201,238.944L140.644,237.727L139.46,236.152L138.727,234.327L138.497,232.377L138.784,230.434L139.57,228.631L139.732,228.362L139.738,228.351L139.923,228.046L139.93,228.036L140.116,227.732L140.122,227.721L140.309,227.418L140.316,227.407L140.504,227.104L140.51,227.094L140.699,226.791L140.706,226.781L140.896,226.479L140.902,226.469L141.094,226.168L141.1,226.157L141.292,225.856L141.299,225.846L141.492,225.546L141.499,225.536L141.693,225.236L141.699,225.226L141.895,224.927L141.901,224.917L142.097,224.618L142.104,224.608L142.301,224.31L142.308,224.3L142.506,224.003L142.513,223.993L142.712,223.696L142.719,223.686L142.919,223.39L142.925,223.38L143.127,223.084L143.133,223.074L143.336,222.779L143.342,222.769L143.545,222.475L143.552,222.465L143.756,222.171L143.763,222.161L143.968,221.868L143.975,221.858L144.181,221.566L144.188,221.556L144.395,221.264L144.402,221.254L144.61,220.963L144.617,220.953L144.826,220.662L144.833,220.653L145.043,220.362L145.05,220.353L145.26,220.063L145.267,220.053L145.479,219.764L145.486,219.755L145.699,219.466L145.706,219.457L145.92,219.169L145.927,219.159L146.142,218.872L146.149,218.862L146.364,218.576L146.372,218.566L146.588,218.28L146.595,218.271L146.813,217.986L146.82,217.976L147.039,217.691L147.046,217.682L147.265,217.398L147.272,217.388L147.493,217.105L147.5,217.096L147.721,216.813L147.729,216.803L147.951,216.521L147.958,216.512L148.182,216.23L148.189,216.221L148.413,215.94L148.42,215.931L148.645,215.65L148.653,215.641L148.816,215.438L148.879,215.361L148.886,215.352L149.113,215.073L149.12,215.064L149.348,214.785L149.356,214.776L149.585,214.498L149.592,214.489L149.822,214.212L149.829,214.203L150.06,213.926L150.067,213.917L150.299,213.641L150.306,213.632L150.539,213.357L150.546,213.348L150.78,213.073L150.787,213.065L151.022,212.79L151.029,212.782L151.264,212.508L151.272,212.499L151.508,212.227L151.516,212.218L151.753,211.946L151.76,211.937L151.998,211.665L152.006,211.657L152.245,211.386L152.252,211.377L152.492,211.107L152.5,211.098L152.74,210.829L152.748,210.82L152.99,210.551L152.997,210.543L153.24,210.275L153.248,210.266L153.491,209.998L153.499,209.99L153.743,209.723L153.751,209.715L153.996,209.448L154.004,209.44L154.25,209.174L154.257,209.166L154.504,208.901L154.512,208.893L154.76,208.628L154.768,208.62L155.016,208.356L155.024,208.348L155.274,208.085L155.282,208.077L155.532,207.815L155.54,207.806L155.791,207.545L155.799,207.537L156.051,207.276L156.059,207.268L156.312,207.007L156.32,206.999L156.574,206.74L156.582,206.732L156.837,206.473L156.845,206.465L157.1,206.206L157.108,206.198L157.365,205.941L157.373,205.933L157.63,205.676L157.638,205.668L157.896,205.412L157.904,205.404L158.163,205.149L158.171,205.141L158.431,204.886L158.439,204.878L158.7,204.624L158.708,204.616L158.97,204.363L158.978,204.355L159.24,204.102L159.249,204.094L159.512,203.843L159.52,203.835L159.784,203.584L159.792,203.576L160.057,203.325L160.066,203.318L160.331,203.068L160.34,203.06L160.606,202.811L160.614,202.803L160.882,202.555L160.89,202.547L161.159,202.299L161.167,202.292L161.436,202.045L161.444,202.037L161.714,201.791L161.722,201.783L161.993,201.538L162.002,201.53L162.273,201.286L162.282,201.278L162.554,201.034L162.562,201.026L162.836,200.783L162.844,200.776L163.118,200.533L163.126,200.526L163.401,200.284L163.41,200.276L163.685,200.035L163.694,200.028L163.97,199.787L163.979,199.78L164.256,199.54L164.265,199.533L164.543,199.294L164.551,199.286L164.83,199.048L164.839,199.041L165.118,198.803L165.127,198.796L165.407,198.559L165.416,198.552L165.697,198.316L165.706,198.309L165.988,198.073L165.996,198.066L166.279,197.832L166.288,197.825L166.572,197.591L166.58,197.584L166.865,197.35L166.873,197.343L167.159,197.111L167.167,197.104L167.453,196.872L167.462,196.865L167.749,196.635L167.758,196.628L168.045,196.397L168.054,196.39L168.342,196.161L168.351,196.154L168.64,195.926L168.649,195.919L168.939,195.691L168.948,195.684L169.239,195.457L169.247,195.45L169.539,195.224L169.548,195.217L169.84,194.991L169.849,194.984L170.142,194.76L170.15,194.753L170.444,194.529L170.453,194.522L170.748,194.299L170.757,194.292L171.052,194.069L171.061,194.063L171.357,193.841L171.366,193.834L171.663,193.613L171.671,193.607L171.969,193.387L171.978,193.38L172.076,193.308L173.81,192.352L175.733,191.873L177.717,191.904ZM278.38,167.259L278.562,167.284L278.572,167.285L278.974,167.341L278.984,167.342L279.385,167.398L279.396,167.4L279.796,167.457L279.807,167.459L280.207,167.517L280.217,167.519L280.617,167.578L280.628,167.58L281.027,167.641L281.037,167.642L281.436,167.704L281.447,167.705L281.845,167.768L281.856,167.77L282.254,167.834L282.264,167.835L282.662,167.9L282.672,167.902L283.07,167.968L283.08,167.97L283.477,168.037L283.487,168.038L283.884,168.106L283.894,168.108L284.29,168.177L284.301,168.179L284.696,168.249L284.707,168.251L285.102,168.322L285.112,168.324L285.507,168.396L285.517,168.398L285.912,168.472L285.922,168.473L286.316,168.548L286.326,168.55L286.72,168.625L286.73,168.627L287.123,168.704L287.133,168.706L287.526,168.783L287.536,168.785L287.928,168.864L287.939,168.866L288.33,168.945L288.341,168.947L288.732,169.028L288.742,169.03L289.133,169.112L289.143,169.114L289.534,169.196L289.544,169.199L289.934,169.282L289.944,169.284L290.334,169.369L290.344,169.371L290.733,169.457L290.743,169.459L291.132,169.546L291.142,169.548L291.53,169.636L291.54,169.638L291.928,169.727L291.938,169.73L292.325,169.819L292.336,169.822L292.722,169.913L292.732,169.915L293.118,170.007L293.129,170.009L293.514,170.102L293.525,170.105L293.91,170.198L293.92,170.201L294.305,170.296L294.315,170.298L294.699,170.394L294.71,170.397L295.093,170.494L295.104,170.496L295.487,170.594L295.497,170.597L295.88,170.696L295.89,170.698L296.272,170.798L296.283,170.801L296.664,170.902L296.675,170.904L297.056,171.006L297.066,171.009L297.447,171.112L297.457,171.115L297.838,171.218L297.848,171.221L298.228,171.326L298.238,171.329L298.617,171.435L298.627,171.438L299.006,171.544L299.016,171.547L299.395,171.655L299.405,171.658L299.783,171.767L299.793,171.77L300.17,171.88L300.18,171.883L300.557,171.993L300.567,171.996L300.944,172.108L300.954,172.111L301.33,172.224L301.34,172.227L301.715,172.341L301.725,172.344L302.1,172.458L302.11,172.461L302.484,172.577L302.494,172.58L302.868,172.697L302.878,172.7L303.251,172.818L303.262,172.821L303.634,172.939L303.644,172.943L304.016,173.062L304.027,173.065L304.398,173.186L304.408,173.189L304.779,173.311L304.789,173.314L305.16,173.436L305.17,173.44L305.54,173.563L305.55,173.567L305.92,173.691L305.93,173.694L306.299,173.82L306.309,173.823L306.677,173.949L306.687,173.953L307.055,174.08L307.065,174.083L307.432,174.212L307.442,174.215L307.809,174.344L307.819,174.348L308.185,174.478L308.195,174.481L308.561,174.612L308.571,174.616L308.936,174.748L308.946,174.752L309.311,174.884L309.321,174.888L309.685,175.022L309.695,175.026L310.058,175.16L310.068,175.164L310.431,175.3L310.441,175.304L310.803,175.44L310.813,175.444L311.175,175.582L311.185,175.585L311.546,175.724L311.556,175.728L311.917,175.867L311.927,175.871L312.287,176.011L312.296,176.015L312.656,176.157L312.666,176.16L313.025,176.303L313.035,176.307L313.393,176.45L313.403,176.454L313.761,176.598L313.771,176.602L314.128,176.747L314.138,176.751L314.494,176.897L314.504,176.901L314.86,177.048L314.87,177.052L315.225,177.2L315.235,177.204L315.59,177.352L315.6,177.356L315.954,177.506L315.964,177.51L316.318,177.661L316.327,177.665L316.681,177.816L316.69,177.821L317.043,177.973L317.053,177.977L317.404,178.13L317.414,178.135L317.766,178.289L317.775,178.293L318.126,178.448L318.136,178.452L318.486,178.608L318.496,178.613L318.845,178.769L318.855,178.774L319.204,178.932L319.213,178.936L319.562,179.095L319.571,179.099L319.919,179.259L319.929,179.263L320.276,179.423L320.285,179.428L320.632,179.589L320.641,179.594L320.987,179.756L320.997,179.761L321.342,179.924L321.352,179.928L321.696,180.092L321.706,180.097L322.05,180.262L322.06,180.266L322.403,180.432L322.413,180.437L322.755,180.603L322.765,180.608L323.107,180.776L323.117,180.78L323.458,180.949L323.468,180.953L323.808,181.123L323.818,181.127L324.135,181.286L325.774,182.393L327.067,183.881L327.927,185.651L328.295,187.58L328.146,189.538L327.49,191.392L326.372,193.013L324.868,194.294L323.081,195.145L321.131,195.509L319.153,195.362L317.281,194.713L316.978,194.561L316.666,194.406L316.353,194.252L316.04,194.099L315.726,193.946L315.412,193.794L315.097,193.643L314.781,193.493L314.465,193.344L314.148,193.195L313.83,193.047L313.512,192.9L313.194,192.754L312.874,192.609L312.555,192.464L312.234,192.32L311.913,192.177L311.592,192.035L311.27,191.894L310.947,191.753L310.624,191.614L310.3,191.475L309.976,191.337L309.651,191.2L309.325,191.063L308.999,190.928L308.673,190.793L308.346,190.659L308.018,190.526L307.69,190.394L307.361,190.263L307.032,190.132L306.702,190.002L306.371,189.874L306.04,189.746L305.709,189.618L305.377,189.492L305.044,189.367L304.711,189.242L304.377,189.118L304.043,188.996L303.709,188.874L303.373,188.752L303.038,188.632L302.701,188.513L302.365,188.394L302.027,188.276L301.689,188.16L301.351,188.044L301.012,187.929L300.673,187.814L300.333,187.701L299.992,187.589L299.652,187.477L299.31,187.366L298.968,187.256L298.626,187.147L298.283,187.039L297.939,186.932L297.596,186.826L297.251,186.721L296.906,186.616L296.561,186.512L296.215,186.41L295.869,186.308L295.522,186.207L295.175,186.107L294.827,186.008L294.478,185.91L294.13,185.812L293.78,185.716L293.431,185.62L293.081,185.526L292.73,185.432L292.379,185.339L292.027,185.248L291.675,185.157L291.323,185.067L290.97,184.978L290.616,184.889L290.437,184.845L290.262,184.802L289.908,184.716L289.553,184.63L289.198,184.546L288.842,184.462L288.486,184.38L288.13,184.298L287.773,184.217L287.415,184.138L287.057,184.059L286.699,183.981L286.34,183.904L285.981,183.828L285.621,183.753L285.261,183.679L284.901,183.605L284.54,183.533L284.178,183.462L283.816,183.392L283.454,183.322L283.092,183.254L282.729,183.186L282.365,183.12L282.001,183.054L281.637,182.99L281.272,182.926L280.907,182.863L280.541,182.802L280.176,182.741L279.809,182.681L279.442,182.622L279.075,182.565L278.708,182.508L278.34,182.452L277.972,182.397L277.603,182.343L277.234,182.29L276.864,182.238L276.494,182.188L276.329,182.165L274.415,181.648L272.701,180.659L271.305,179.264L270.321,177.559L269.816,175.66L269.825,173.697L270.347,171.803L271.347,170.106L272.756,168.724L274.478,167.75L276.397,167.251L278.38,167.259ZM248.425,166.426L250.311,167.036L251.973,168.109L253.297,169.57L254.195,171.321L254.604,173.243L254.497,175.203L253.881,177.07L252.797,178.715L251.321,180.026L249.552,180.914L247.611,181.319L247.223,181.349L246.845,181.379L246.468,181.41L246.091,181.441L245.715,181.474L245.338,181.508L244.963,181.543L244.587,181.579L244.212,181.616L243.837,181.654L243.463,181.693L243.089,181.733L242.715,181.774L242.342,181.816L241.969,181.859L241.596,181.903L241.224,181.948L240.852,181.994L240.481,182.041L240.11,182.089L239.739,182.138L239.369,182.188L238.999,182.238L238.63,182.29L238.26,182.343L237.892,182.397L237.523,182.452L237.155,182.508L236.788,182.565L236.421,182.622L236.054,182.681L235.688,182.741L235.322,182.802L234.956,182.863L234.591,182.926L234.226,182.99L233.862,183.054L233.498,183.12L233.135,183.186L232.772,183.254L232.409,183.322L232.047,183.392L231.685,183.462L231.324,183.533L230.963,183.605L230.602,183.679L230.242,183.753L229.882,183.828L229.523,183.904L229.164,183.981L228.806,184.059L228.448,184.138L228.091,184.217L227.734,184.298L227.377,184.38L227.021,184.462L226.665,184.546L226.31,184.63L225.955,184.716L225.601,184.802L225.247,184.889L224.894,184.978L224.541,185.067L224.188,185.157L223.836,185.248L223.484,185.339L223.133,185.432L222.783,185.526L222.432,185.62L222.083,185.716L221.734,185.812L221.385,185.91L221.036,186.008L220.689,186.107L220.341,186.207L219.995,186.308L219.648,186.41L219.381,186.489L219.302,186.512L218.957,186.616L218.612,186.721L218.268,186.826L217.924,186.932L217.58,187.039L217.237,187.147L216.895,187.256L216.553,187.366L216.212,187.477L215.871,187.589L215.53,187.701L215.19,187.814L214.851,187.929L214.512,188.044L214.174,188.16L213.836,188.276L213.499,188.394L213.162,188.513L212.826,188.632L212.49,188.752L212.155,188.874L211.82,188.996L211.486,189.118L211.152,189.242L210.819,189.367L210.486,189.492L210.154,189.618L209.823,189.746L209.492,189.874L209.161,190.002L208.832,190.132L208.502,190.263L208.173,190.394L207.845,190.526L207.517,190.659L207.19,190.793L206.864,190.928L206.538,191.063L206.212,191.2L205.899,191.332L203.989,191.86L202.005,191.881L200.084,191.392L198.355,190.429L196.938,189.055L195.928,187.365L195.394,185.474L195.373,183.51L195.867,181.608L196.84,179.897L198.228,178.494L199.936,177.495L200.263,177.356L200.273,177.352L200.628,177.204L200.638,177.2L200.993,177.052L201.003,177.048L201.359,176.901L201.369,176.897L201.726,176.751L201.735,176.747L202.093,176.602L202.102,176.598L202.46,176.454L202.47,176.45L202.829,176.307L202.838,176.303L203.197,176.16L203.207,176.157L203.567,176.015L203.577,176.011L203.937,175.871L203.947,175.867L204.307,175.728L204.317,175.724L204.678,175.585L204.688,175.582L205.05,175.444L205.06,175.44L205.422,175.304L205.432,175.3L205.795,175.164L205.805,175.16L206.169,175.026L206.179,175.022L206.543,174.888L206.553,174.884L206.917,174.752L206.927,174.748L207.292,174.616L207.302,174.612L207.668,174.481L207.678,174.478L208.044,174.348L208.054,174.344L208.421,174.215L208.431,174.212L208.798,174.083L208.808,174.08L209.176,173.953L209.186,173.949L209.555,173.823L209.565,173.82L209.934,173.694L209.944,173.691L210.313,173.567L210.323,173.563L210.693,173.44L210.703,173.436L211.074,173.314L211.084,173.311L211.455,173.189L211.465,173.186L211.837,173.065L211.847,173.062L212.219,172.943L212.229,172.939L212.602,172.821L212.612,172.818L212.985,172.7L212.995,172.697L213.369,172.58L213.379,172.577L213.753,172.461L213.763,172.458L214.138,172.344L214.148,172.341L214.523,172.227L214.534,172.224L214.909,172.111L214.92,172.108L215.013,172.08L215.296,171.996L215.306,171.993L215.683,171.883L215.693,171.88L216.07,171.77L216.08,171.767L216.458,171.658L216.468,171.655L216.847,171.547L216.857,171.544L217.236,171.438L217.246,171.435L217.625,171.329L217.636,171.326L218.015,171.221L218.026,171.218L218.406,171.115L218.416,171.112L218.797,171.009L218.807,171.006L219.188,170.904L219.199,170.902L219.581,170.801L219.591,170.798L219.973,170.698L219.983,170.696L220.366,170.597L220.376,170.594L220.76,170.496L220.77,170.494L221.154,170.397L221.164,170.394L221.548,170.298L221.558,170.296L221.943,170.201L221.953,170.198L222.338,170.105L222.349,170.102L222.734,170.009L222.745,170.007L223.131,169.915L223.141,169.913L223.528,169.822L223.538,169.819L223.925,169.73L223.935,169.727L224.323,169.638L224.333,169.636L224.721,169.548L224.732,169.546L225.12,169.459L225.13,169.457L225.519,169.371L225.53,169.369L225.919,169.284L225.929,169.282L226.319,169.199L226.329,169.196L226.72,169.114L226.73,169.112L227.121,169.03L227.131,169.028L227.522,168.947L227.533,168.945L227.924,168.866L227.935,168.864L228.327,168.785L228.337,168.783L228.73,168.706L228.74,168.704L229.133,168.627L229.143,168.625L229.537,168.55L229.547,168.548L229.941,168.473L229.952,168.472L230.346,168.398L230.356,168.396L230.751,168.324L230.761,168.322L231.156,168.251L231.167,168.249L231.562,168.179L231.573,168.177L231.969,168.108L231.979,168.106L232.376,168.038L232.386,168.037L232.783,167.97L232.793,167.968L233.191,167.902L233.201,167.9L233.599,167.835L233.609,167.834L234.007,167.77L234.018,167.768L234.416,167.705L234.427,167.704L234.826,167.642L234.836,167.641L235.236,167.58L235.246,167.578L235.646,167.519L235.656,167.517L236.056,167.459L236.067,167.457L236.468,167.4L236.478,167.398L236.879,167.342L236.889,167.341L237.291,167.285L237.301,167.284L237.703,167.23L237.714,167.228L238.116,167.175L238.126,167.174L238.529,167.122L238.539,167.12L238.942,167.07L238.953,167.068L239.356,167.018L239.367,167.017L239.77,166.968L239.781,166.967L240.185,166.919L240.196,166.918L240.6,166.871L240.611,166.87L241.016,166.825L241.026,166.824L241.431,166.779L241.442,166.778L241.848,166.735L241.858,166.734L242.264,166.691L242.275,166.69L242.681,166.649L242.692,166.648L243.099,166.608L243.109,166.607L243.516,166.568L243.527,166.567L243.934,166.529L243.945,166.528L244.353,166.491L244.363,166.491L244.772,166.455L244.782,166.454L245.191,166.419L245.201,166.419L245.61,166.385L245.621,166.384L246.03,166.352L246.041,166.351L246.444,166.32L248.425,166.426Z"/>
        </g>
</svg>
