<?xml version="1.0" encoding="UTF-8" standalone="no"?>
<svg
   xmlns:dc="http://purl.org/dc/elements/1.1/"
   xmlns:cc="http://creativecommons.org/ns#"
   xmlns:rdf="http://www.w3.org/1999/02/22-rdf-syntax-ns#"
   xmlns:svg="http://www.w3.org/2000/svg"
   xmlns="http://www.w3.org/2000/svg"
   xmlns:sodipodi="http://sodipodi.sourceforge.net/DTD/sodipodi-0.dtd"
   xmlns:inkscape="http://www.inkscape.org/namespaces/inkscape"
   width="100%"
   height="100%"
   viewBox="0 0 512 512"
   version="1.1"
   xml:space="preserve"
   style="fill-rule:evenodd;clip-rule:evenodd;stroke-linejoin:round;stroke-miterlimit:1.41421;"
   id="svg6"
   sodipodi:docname="logo-mattermost.svg"
   inkscape:version="0.92.3 (2405546, 2018-03-11)"><metadata
   id="metadata12"><rdf:RDF><cc:Work
       rdf:about=""><dc:format>image/svg+xml</dc:format><dc:type
         rdf:resource="http://purl.org/dc/dcmitype/StillImage" /></cc:Work></rdf:RDF></metadata><defs
   id="defs10" /><sodipodi:namedview
   pagecolor="#ffffff"
   bordercolor="#666666"
   borderopacity="1"
   objecttolerance="10"
   gridtolerance="10"
   guidetolerance="10"
   inkscape:pageopacity="0"
   inkscape:pageshadow="2"
   inkscape:window-width="1920"
   inkscape:window-height="1020"
   id="namedview8"
   showgrid="false"
   inkscape:zoom="0.4609375"
   inkscape:cx="256"
   inkscape:cy="256"
   inkscape:window-x="1200"
   inkscape:window-y="420"
   inkscape:window-maximized="1"
   inkscape:current-layer="svg6" />
    <path
   class="cls-1"
   d="m 389.84218,79.839039 2.36753,47.764861 c 38.70881,42.78673 54.01229,103.37051 34.73891,160.31746 -28.80656,84.99733 -123.67013,129.68349 -211.94421,99.8057 C 126.73033,357.84926 78.506368,264.70508 107.25891,179.70775 126.6043,122.57175 175.8095,83.655907 232.80146,73.348562 l 30.787,-36.386275 C 167.57262,34.360695 76.913005,93.990257 44.478628,189.79004 4.6355663,307.48281 67.748921,435.19486 185.45069,475.03792 303.15246,514.88098 430.8555,451.76762 470.70757,334.07486 503.07893,238.4371 467.47583,136.18285 389.84218,79.839039 Z"
   id="path2"
   inkscape:connector-curvature="0"
   style="stroke-width:0.90020472" />
    <path
   class="cls-1"
   d="m 328.80967,209.06617 -1.62937,-66.77719 -1.3053,-38.42073 -0.9002,-33.307576 c 0,0 0.18004,-16.059652 -0.37809,-19.804504 a 6.06738,6.06738 0 0 0 -0.66615,-1.998455 1.89043,1.89043 0 0 0 -0.11702,-0.234053 1.5843604,1.5843604 0 0 0 -0.12603,-0.207047 5.1581732,5.1581732 0 0 0 -6.5895,-2.178495 h -0.072 l -0.39611,0.207047 a 5.887339,5.887339 0 0 0 -1.64737,1.134258 c -2.70062,2.700614 -12.34181,15.519529 -12.34181,15.519529 L 281.71996,88.906847 257.34242,118.6136 215.4829,170.67244 c 0,0 -19.21037,23.97245 -14.97041,53.48116 4.23997,29.50871 26.18696,43.88498 43.20983,49.64629 17.02287,5.76131 43.20983,7.66975 64.47266,-13.197 21.26284,-20.86675 20.61469,-51.53672 20.61469,-51.53672 z"
   id="path4"
   inkscape:connector-curvature="0"
   style="stroke-width:0.90020472" />
</svg>