<?xml version="1.0" encoding="UTF-8" standalone="no"?>
<!-- Generator: Adobe Illustrator 16.2.1, SVG Export Plug-In . SVG Version: 6.00 Build 0)  -->

<svg
   xmlns:dc="http://purl.org/dc/elements/1.1/"
   xmlns:cc="http://creativecommons.org/ns#"
   xmlns:rdf="http://www.w3.org/1999/02/22-rdf-syntax-ns#"
   xmlns:svg="http://www.w3.org/2000/svg"
   xmlns="http://www.w3.org/2000/svg"
   xmlns:sodipodi="http://sodipodi.sourceforge.net/DTD/sodipodi-0.dtd"
   xmlns:inkscape="http://www.inkscape.org/namespaces/inkscape"
   version="1.1"
   id="Layer_1"
   x="0px"
   y="0px"
   width="512px"
   height="512px"
   viewBox="0 0 512 512"
   enable-background="new 0 0 512 512"
   xml:space="preserve"
   sodipodi:docname="md-mastodon.svg"
   inkscape:version="0.92.3 (2405546, 2018-03-11)"><metadata
   id="metadata11"><rdf:RDF><cc:Work
       rdf:about=""><dc:format>image/svg+xml</dc:format><dc:type
         rdf:resource="http://purl.org/dc/dcmitype/StillImage" /></cc:Work></rdf:RDF></metadata><defs
   id="defs9" /><sodipodi:namedview
   pagecolor="#ffffff"
   bordercolor="#666666"
   borderopacity="1"
   objecttolerance="10"
   gridtolerance="10"
   guidetolerance="10"
   inkscape:pageopacity="0"
   inkscape:pageshadow="2"
   inkscape:window-width="1920"
   inkscape:window-height="1057"
   id="namedview7"
   showgrid="true"
   inkscape:zoom="1.3037281"
   inkscape:cx="55.596323"
   inkscape:cy="188.31115"
   inkscape:window-x="0"
   inkscape:window-y="588"
   inkscape:window-maximized="1"
   inkscape:current-layer="Layer_1"
   showguides="true"><inkscape:grid
     type="xygrid"
     id="grid8" /></sodipodi:namedview>
<g
   id="g4"
   transform="matrix(22.335081,0,0,22.335081,-12.010486,-14.488098)">
	<path
   d="m 20.94,14 c -0.28,1.41 -2.44,2.96 -4.97,3.26 -1.31,0.15 -2.6,0.3 -3.97,0.24 C 9.75,17.39 8,16.96 8,16.96 v 0.62 c 0.32,2.22 2.22,2.35 4.03,2.42 1.82,0.05 3.44,-0.46 3.44,-0.46 l 0.08,1.65 c 0,0 -1.28,0.68 -3.55,0.81 C 10.75,22.07 9.19,21.97 7.38,21.5 3.46,20.45 2.78,16.26 2.68,12 L 2.67,8.57 C 2.67,4.23 5.5,2.96 5.5,2.96 6.95,2.3 9.41,2 11.97,2 h 0.06 c 2.56,0 5.02,0.3 6.47,0.96 0,0 2.83,1.27 2.83,5.61 0,0 0.04,3.21 -0.39,5.43 M 18,8.91 C 18,7.83 17.7,7 17.15,6.35 16.59,5.72 15.85,5.39 14.92,5.39 13.86,5.39 13.05,5.8 12.5,6.62 L 12,7.5 11.5,6.62 C 10.94,5.8 10.14,5.39 9.07,5.39 8.15,5.39 7.41,5.72 6.84,6.35 6.29,7 6,7.83 6,8.91 v 5.26 H 8.1 V 9.06 C 8.1,8 8.55,7.44 9.46,7.44 c 1,0 1.5,0.65 1.5,1.93 v 2.79 h 2.07 V 9.37 c 0,-1.28 0.5,-1.93 1.51,-1.93 0.9,0 1.35,0.56 1.35,1.62 v 5.11 H 18 Z"
   id="path2"
   inkscape:connector-curvature="0" />
</g>
</svg>
